<svg width="183" height="23" viewBox="0 0 183 23" fill="none" xmlns="http://www.w3.org/2000/svg">
<g style="mix-blend-mode:exclusion">
<path d="M11.2228 22.9342C9.72549 22.9342 8.32798 22.6547 7.0303 22.0957C5.75258 21.5167 4.6246 20.7181 3.64634 19.7C2.68805 18.6818 1.93939 17.4939 1.40035 16.1363C0.861316 14.7588 0.591797 13.2814 0.591797 11.7042C0.591797 10.1271 0.861316 8.65967 1.40035 7.3021C1.93939 5.94452 2.68805 4.76662 3.64634 3.76841C4.6246 2.75022 5.75258 1.96163 7.0303 1.40263C8.32798 0.823663 9.72549 0.53418 11.2228 0.53418C13.0196 0.53418 14.6567 0.90352 16.134 1.6422C17.6314 2.38088 18.8692 3.41903 19.8474 4.75664C20.8456 6.09425 21.4745 7.65147 21.734 9.4283H18.2303C18.0307 8.27037 17.6014 7.2422 16.9426 6.34381C16.2838 5.44541 15.4652 4.74666 14.487 4.24755C13.5287 3.74844 12.4506 3.49889 11.2528 3.49889C10.1947 3.49889 9.2164 3.69853 8.318 4.09782C7.43957 4.4971 6.67094 5.06609 6.01212 5.80477C5.37326 6.54345 4.87415 7.4119 4.51479 8.41012C4.1754 9.40833 4.0057 10.5064 4.0057 11.7042C4.0057 12.9021 4.1754 14.0101 4.51479 15.0283C4.87415 16.0265 5.37326 16.895 6.01212 17.6336C6.67094 18.3723 7.43957 18.9513 8.318 19.3705C9.2164 19.7698 10.1947 19.9695 11.2528 19.9695C12.4506 19.9695 13.5387 19.7199 14.5169 19.2208C15.4952 18.7017 16.3037 17.993 16.9426 17.0946C17.6014 16.1962 18.0307 15.168 18.2303 14.0101H21.734C21.4745 15.7869 20.8456 17.3442 19.8474 18.6818C18.8692 20.0194 17.6314 21.0675 16.134 21.8262C14.6567 22.5648 13.0196 22.9342 11.2228 22.9342Z" fill="black"/>
<path d="M30.9672 22.7845C29.8492 22.7845 28.811 22.5848 27.8527 22.1855C26.9144 21.7663 26.0959 21.1873 25.3971 20.4486C24.6984 19.69 24.1493 18.8115 23.7501 17.8133C23.3707 16.8151 23.1811 15.7271 23.1811 14.5492C23.1811 13.3713 23.3707 12.2832 23.7501 11.285C24.1493 10.2868 24.6984 9.41832 25.3971 8.67964C26.0959 7.92099 26.9144 7.34202 27.8527 6.94274C28.811 6.52349 29.8492 6.31386 30.9672 6.31386C32.1051 6.31386 33.1433 6.52349 34.0816 6.94274C35.0399 7.34202 35.8584 7.92099 36.5372 8.67964C37.236 9.41832 37.775 10.2868 38.1543 11.285C38.5536 12.2832 38.7533 13.3713 38.7533 14.5492C38.7533 15.7271 38.5536 16.8151 38.1543 17.8133C37.775 18.8115 37.236 19.69 36.5372 20.4486C35.8584 21.1873 35.0399 21.7663 34.0816 22.1855C33.1433 22.5848 32.1051 22.7845 30.9672 22.7845ZM30.9672 20.1192C31.8456 20.1192 32.6342 19.8996 33.3329 19.4604C34.0517 19.0012 34.6107 18.3524 35.01 17.5139C35.4292 16.6754 35.6388 15.6871 35.6388 14.5492C35.6388 13.3912 35.4292 12.403 35.01 11.5844C34.6107 10.7459 34.0517 10.1071 33.3329 9.66787C32.6342 9.22865 31.8456 9.00905 30.9672 9.00905C30.1087 9.00905 29.3201 9.22865 28.6014 9.66787C27.9026 10.1071 27.3436 10.7459 26.9244 11.5844C26.5251 12.403 26.3255 13.3912 26.3255 14.5492C26.3255 15.6871 26.5251 16.6754 26.9244 17.5139C27.3436 18.3524 27.9026 19.0012 28.6014 19.4604C29.3201 19.8996 30.1087 20.1192 30.9672 20.1192Z" fill="black"/>
<path d="M44.2623 13.531V22.485H41.2377V6.61332H44.0526V9.24862C44.5917 8.37019 45.2904 7.66145 46.1489 7.12242C47.0273 6.58338 48.0156 6.31386 49.1136 6.31386C50.7507 6.31386 52.0583 6.82295 53.0366 7.84113C54.0348 8.85931 54.5339 10.3167 54.5339 12.2133V22.485H51.5093V13.2315C51.5093 11.8739 51.2198 10.8258 50.6409 10.0871C50.0619 9.34844 49.2034 8.9791 48.0655 8.9791C47.3667 8.9791 46.7279 9.16876 46.1489 9.54809C45.5699 9.90744 45.1107 10.4265 44.7714 11.1053C44.432 11.7841 44.2623 12.5926 44.2623 13.531Z" fill="black"/>
<path d="M66.8471 19.5502V22.2155C66.3879 22.4351 65.9387 22.5848 65.4995 22.6647C65.0802 22.7445 64.6311 22.7845 64.1519 22.7845C63.1736 22.7845 62.3052 22.6048 61.5466 22.2454C60.8079 21.8861 60.2289 21.3271 59.8097 20.5684C59.3904 19.8098 59.1808 18.8515 59.1808 17.6935V9.18873H55.677V6.61332H59.1808V1.91172H62.2054V6.61332H66.9968V9.18873H62.2054V17.0048C62.2054 18.1028 62.445 18.8714 62.9241 19.3107C63.4232 19.7499 64.072 19.9695 64.8706 19.9695C65.23 19.9695 65.5694 19.9395 65.8888 19.8796C66.2282 19.7998 66.5476 19.69 66.8471 19.5502Z" fill="black"/>
<path d="M78.8973 22.485V20.0294C78.3982 20.9078 77.7194 21.5866 76.8609 22.0657C76.0025 22.5449 74.9843 22.7845 73.8064 22.7845C72.1693 22.7845 70.8517 22.3552 69.8534 21.4968C68.8552 20.6183 68.3561 19.4504 68.3561 17.993C68.3561 16.4358 68.965 15.2579 70.1829 14.4593C71.4206 13.6607 73.2174 13.2615 75.5732 13.2615C76.0324 13.2615 76.4816 13.2714 76.9208 13.2914C77.36 13.3114 77.8991 13.3613 78.5379 13.4411V12.2732C78.5379 11.1552 78.2485 10.2868 77.6695 9.66787C77.0905 9.02901 76.272 8.70958 75.2139 8.70958C74.1158 8.70958 73.2374 9.02901 72.5786 9.66787C71.9397 10.2868 71.6003 11.1452 71.5604 12.2433H68.8053C68.8452 11.0454 69.1347 10.0073 69.6738 9.12883C70.2328 8.23044 70.9814 7.54167 71.9198 7.06252C72.878 6.56341 73.9761 6.31386 75.2139 6.31386C77.1704 6.31386 78.6877 6.84292 79.7657 7.90103C80.8638 8.93917 81.4128 10.4066 81.4128 12.3032V22.485H78.8973ZM71.231 17.9032C71.231 18.7217 71.5205 19.3805 72.0994 19.8796C72.6784 20.3787 73.447 20.6283 74.4053 20.6283C75.683 20.6283 76.6912 20.2689 77.4299 19.5502C78.1686 18.8115 78.5379 17.8333 78.5379 16.6155V15.3278C77.959 15.2679 77.4499 15.2279 77.0107 15.208C76.5714 15.1681 76.1522 15.1481 75.7529 15.1481C74.2356 15.1481 73.0976 15.3777 72.339 15.8369C71.6003 16.2761 71.231 16.9648 71.231 17.9032Z" fill="black"/>
<path d="M91.1166 22.8144C89.6592 22.8144 88.3715 22.465 87.2535 21.7663C86.1555 21.0675 85.2871 20.0992 84.6482 18.8615C84.0293 17.6037 83.7199 16.1663 83.7199 14.5492C83.7199 12.952 84.0393 11.5345 84.6781 10.2967C85.317 9.05896 86.1954 8.09069 87.3134 7.39194C88.4314 6.67322 89.6992 6.31386 91.1166 6.31386C92.4343 6.31386 93.6022 6.59336 94.6204 7.15236C95.6585 7.6914 96.507 8.47001 97.1658 9.48819C97.8446 10.4864 98.2739 11.6743 98.4535 13.0518H95.2792C95.1195 11.7741 94.6703 10.7759 93.9316 10.0572C93.1929 9.33846 92.2646 8.9791 91.1466 8.9791C90.2682 8.9791 89.5095 9.21867 88.8707 9.69782C88.2318 10.157 87.7327 10.7959 87.3733 11.6144C87.014 12.4329 86.8343 13.4112 86.8343 14.5492C86.8343 15.6672 87.014 16.6454 87.3733 17.4839C87.7327 18.3224 88.2318 18.9713 88.8707 19.4304C89.5095 19.8896 90.2682 20.1192 91.1466 20.1192C92.2846 20.1192 93.2129 19.7599 93.9316 19.0411C94.6703 18.3224 95.1295 17.3242 95.3092 16.0465H98.4535C98.2938 17.444 97.8846 18.6518 97.2257 19.67C96.5669 20.6682 95.7184 21.4468 94.6803 22.0058C93.6421 22.5449 92.4543 22.8144 91.1166 22.8144Z" fill="black"/>
<path d="M109.853 19.5502V22.2155C109.394 22.4351 108.945 22.5848 108.506 22.6647C108.086 22.7445 107.637 22.7845 107.158 22.7845C106.18 22.7845 105.311 22.6048 104.553 22.2454C103.814 21.8861 103.235 21.3271 102.816 20.5684C102.396 19.8098 102.187 18.8515 102.187 17.6935V9.18873H98.6831V6.61332H102.187V1.91172H105.211V6.61332H110.003V9.18873H105.211V17.0048C105.211 18.1028 105.451 18.8714 105.93 19.3107C106.429 19.7499 107.078 19.9695 107.877 19.9695C108.236 19.9695 108.575 19.9395 108.895 19.8796C109.234 19.7998 109.554 19.69 109.853 19.5502Z" fill="black"/>
<path d="M134.75 0.983377V14.7588C134.75 16.3959 134.411 17.8333 133.732 19.0711C133.073 20.2889 132.125 21.2372 130.887 21.916C129.649 22.5948 128.162 22.9342 126.425 22.9342C124.708 22.9342 123.23 22.5948 121.993 21.916C120.755 21.2372 119.797 20.2889 119.118 19.0711C118.459 17.8333 118.13 16.3959 118.13 14.7588V0.983377H121.424V14.8486C121.424 15.8868 121.623 16.7951 122.023 17.5738C122.422 18.3324 122.991 18.9213 123.73 19.3406C124.468 19.7599 125.367 19.9695 126.425 19.9695C127.503 19.9695 128.411 19.7599 129.15 19.3406C129.909 18.9213 130.478 18.3324 130.857 17.5738C131.256 16.7951 131.456 15.8868 131.456 14.8486V0.983377H134.75Z" fill="black"/>
<path d="M151.072 17.7534C151.072 19.3107 150.493 20.5385 149.336 21.4369C148.178 22.3353 146.54 22.7845 144.424 22.7845C142.348 22.7845 140.701 22.2953 139.483 21.3171C138.285 20.3388 137.606 19.0012 137.447 17.3042H140.352C140.391 18.3025 140.781 19.091 141.519 19.67C142.278 20.229 143.266 20.5085 144.484 20.5085C145.542 20.5085 146.391 20.3189 147.03 19.9395C147.688 19.5602 148.018 19.0012 148.018 18.2625C148.018 17.6037 147.798 17.1046 147.359 16.7652C146.94 16.4258 146.231 16.1663 145.233 15.9866L142.657 15.5074C141.2 15.2279 140.072 14.7189 139.273 13.9802C138.475 13.2215 138.076 12.2433 138.076 11.0454C138.076 10.1071 138.325 9.28855 138.824 8.5898C139.343 7.87108 140.062 7.31208 140.98 6.91279C141.899 6.5135 142.967 6.31386 144.185 6.31386C145.462 6.31386 146.58 6.53347 147.539 6.97268C148.497 7.39194 149.266 8.00085 149.845 8.79942C150.424 9.57803 150.753 10.5164 150.833 11.6144H147.928C147.828 10.6761 147.449 9.93739 146.79 9.39835C146.131 8.85932 145.273 8.5898 144.215 8.5898C143.256 8.5898 142.478 8.78944 141.879 9.18873C141.3 9.56805 141.01 10.0971 141.01 10.7759C141.01 11.4148 141.22 11.9039 141.639 12.2433C142.078 12.5627 142.777 12.8222 143.736 13.0219L146.431 13.531C148.008 13.8105 149.176 14.2996 149.934 14.9984C150.693 15.6971 151.072 16.6155 151.072 17.7534Z" fill="black"/>
</g>
<rect x="180.386" y="22.4512" width="21.4462" height="2.19784" transform="rotate(-90 180.386 22.4512)" fill="#5926F0"/>
<rect x="161.747" y="19.9717" width="25.6823" height="2.64699" transform="rotate(-45 161.747 19.9717)" fill="#5926F0"/>
<rect x="161.138" y="1.00488" width="21.4462" height="2.19784" fill="#5926F0"/>
</svg>
