<svg width="128" height="30" viewBox="0 0 128 30" fill="none" xmlns="http://www.w3.org/2000/svg">
<path d="M0.825195 22.6932H4.76203V0.924805H0.825195V22.6932Z" fill="black"/>
<path d="M7.73405 22.6932H11.4393V14.7864C11.4393 11.2135 13.4904 9.26164 16.7325 9.26164C19.6769 9.26164 21.1325 10.7173 21.1325 13.2977V22.6932H24.8378V12.4707C24.8378 8.43457 22.2904 6.0857 18.1551 6.0857C14.3506 6.0857 12.2333 7.77292 11.3401 10.7173H11.307L11.4393 6.35036H7.73405V22.6932Z" fill="black"/>
<path d="M34.3664 22.9579C39.5934 22.9579 42.3724 21.006 42.3724 17.6977C42.3724 16.3744 41.7438 15.1173 40.6521 14.5218C39.4942 13.8601 38.1709 13.6286 35.8551 13.397C33.8701 13.1985 32.3152 13.0331 31.5213 12.7684C30.5619 12.4376 30.3964 11.7759 30.3964 11.0812C30.3964 9.69171 31.8521 8.7654 34.4325 8.7654C37.1453 8.7654 38.3032 9.79096 38.3363 11.9083H41.6776C41.6776 8.20299 39.428 6.0857 34.3333 6.0857C29.9002 6.0857 26.7243 8.07066 26.7243 11.3458C26.7243 12.603 27.2536 13.794 28.1468 14.4556C29.1393 15.1834 30.8596 15.5143 33.407 15.7458C35.2265 15.9113 36.7814 16.0767 37.5754 16.3744C38.4355 16.6722 38.6671 17.2346 38.6671 17.8631C38.6671 19.3519 37.3438 20.2782 34.3333 20.2782C31.1573 20.2782 30.0656 19.1203 30.0656 17.2346H26.7243C26.7243 20.4436 28.7423 22.9579 34.3664 22.9579Z" fill="black"/>
<path d="M51.6913 22.8917C53.0477 22.8917 54.1726 22.6601 54.6688 22.4947V19.5503C54.2056 19.6827 53.147 19.8481 52.2207 19.8481C49.9711 19.8481 49.1771 18.7894 49.1771 16.6722V9.36089H54.8011V6.35036H49.1771V2.64511H46.1004L45.935 5.09322C45.8357 6.01954 45.6041 6.35036 44.9756 6.35036H42.8914V9.36089H45.4718V16.8707C45.4718 20.4767 47.2252 22.8917 51.6913 22.8917Z" fill="black"/>
<path d="M61.9023 22.9579C65.5083 22.9579 67.4602 21.5022 67.9895 19.0872H68.0226C68.0226 20.4105 67.9233 21.8992 67.8571 22.6932H71.5624V12.7353C71.5624 8.43457 68.6511 6.0857 63.6887 6.0857C59.0241 6.0857 56.179 8.03758 56.179 11.3128C56.179 11.6105 56.212 12.0406 56.2451 12.2722H59.6526C59.6196 12.0075 59.6196 11.7428 59.6196 11.6436C59.6196 9.82404 61.0421 8.86465 63.5564 8.86465C66.4346 8.86465 67.8571 9.95637 67.8571 12.4045V13.5624H61.803C57.4361 13.5624 55.6827 15.5143 55.6827 17.9955C55.6827 21.1714 58.1639 22.9579 61.9023 22.9579ZM62.6632 20.1789C60.4135 20.1789 59.0902 19.3188 59.0902 17.83C59.0902 16.5398 60.0165 15.812 62.1338 15.812H67.8571V16.1098C67.8571 18.624 65.8722 20.1789 62.6632 20.1789Z" fill="black"/>
<path d="M74.217 22.6932H78.1869V15.9443H83.7118C88.9388 15.9443 91.7839 13.2316 91.7839 8.50074C91.7839 3.63758 88.608 0.924805 83.2155 0.924805H74.217V22.6932ZM78.1869 13.1323V4.23307H83.0832C86.2591 4.23307 88.0125 5.82104 88.0125 8.69923C88.0125 11.6767 86.3584 13.1323 83.4802 13.1323H78.1869Z" fill="black"/>
<path d="M99.486 22.9579C103.092 22.9579 105.044 21.5022 105.573 19.0872H105.606C105.606 20.4105 105.507 21.8992 105.441 22.6932H109.146V12.7353C109.146 8.43457 106.235 6.0857 101.272 6.0857C96.6078 6.0857 93.7627 8.03758 93.7627 11.3128C93.7627 11.6105 93.7958 12.0406 93.8288 12.2722H97.2364C97.2033 12.0075 97.2033 11.7428 97.2033 11.6436C97.2033 9.82404 98.6258 8.86465 101.14 8.86465C104.018 8.86465 105.441 9.95637 105.441 12.4045V13.5624H99.3867C95.0198 13.5624 93.2664 15.5143 93.2664 17.9955C93.2664 21.1714 95.7477 22.9579 99.486 22.9579ZM100.247 20.1789C97.9973 20.1789 96.674 19.3188 96.674 17.83C96.674 16.5398 97.6003 15.812 99.7176 15.812H105.441V16.1098C105.441 18.624 103.456 20.1789 100.247 20.1789Z" fill="black"/>
<path d="M114.37 29.6075C117.612 29.6075 119.2 27.9203 121.019 23.024L127.239 6.35036H123.6L119.001 18.9549H118.935L113.741 6.35036H109.474L116.553 22.6932H117.447C116.222 25.7368 115.428 26.597 113.708 26.597C112.881 26.597 112.12 26.3985 111.657 26.2661V29.1774C112.12 29.3428 113.113 29.6075 114.37 29.6075Z" fill="black"/>
</svg>
