<svg width="203" height="58" viewBox="0 0 203 58" fill="none" xmlns="http://www.w3.org/2000/svg">
<g id="Group 12">
<path id="Vector" fill-rule="evenodd" clip-rule="evenodd" d="M38.2345 19.5777C38.2345 20.2109 38.2032 20.8379 38.1428 21.4565C38.1428 21.4607 38.1428 21.4648 38.1407 21.469C38.1262 21.621 38.1095 21.771 38.0907 21.921C38.072 22.0772 38.0512 22.2313 38.0283 22.3855C38.0053 22.5396 37.9803 22.6917 37.9533 22.8458C37.9262 22.9978 37.897 23.152 37.8679 23.304C37.82 23.5415 37.7679 23.7789 37.7117 24.0143C37.67 24.1893 37.6221 24.3622 37.5763 24.535C37.5617 24.5892 37.5471 24.6433 37.5325 24.6996C37.4763 24.9016 37.4159 25.1037 37.3513 25.3057C37.3471 25.3182 37.343 25.3307 37.3388 25.3453C34.8976 33.0416 27.6991 38.6217 19.1904 38.6217V57.4743L9.66948 48.2281L0.146423 38.5905V19.309H19.1904L0.17975 0.564935H18.1115C18.4698 0.544106 18.828 0.533691 19.1904 0.533691C27.6929 0.533691 34.8893 6.10547 37.3346 13.7976C37.343 13.8206 37.3492 13.8435 37.3576 13.8664C37.418 14.0601 37.4763 14.2538 37.5304 14.4496C37.5492 14.5121 37.5638 14.5746 37.5804 14.6391C37.6263 14.8037 37.67 14.9703 37.7096 15.139C37.7679 15.3744 37.82 15.6119 37.8679 15.8514C37.897 16.0034 37.9262 16.1576 37.9533 16.3096C37.9803 16.4638 38.0053 16.6158 38.0283 16.77C38.0512 16.9241 38.072 17.0782 38.0907 17.2344C38.1095 17.3844 38.1262 17.5344 38.1407 17.6864C38.1428 17.6906 38.1428 17.6948 38.1428 17.6989C38.2032 18.3176 38.2345 18.9445 38.2345 19.5777Z" fill="url(#paint0_radial_203_1273)"/>
<g id="InstaPay">
<path d="M52.3319 39.0797H57.0229V13.1411H52.3319V39.0797Z" fill="black"/>
<path d="M60.5643 39.0797H64.9794V29.6583C64.9794 25.4009 67.4234 23.0751 71.2866 23.0751C74.7951 23.0751 76.5296 24.8095 76.5296 27.8843V39.0797H80.9446V26.8988C80.9446 22.0895 77.9093 19.2907 72.9817 19.2907C68.4484 19.2907 65.9255 21.3011 64.8611 24.8095H64.8217L64.9794 19.6061H60.5643V39.0797Z" fill="black"/>
<path d="M92.2986 39.3951C98.5271 39.3951 101.838 37.0693 101.838 33.1272C101.838 31.5504 101.089 30.0525 99.7885 29.3429C98.4088 28.5545 96.832 28.2785 94.0725 28.0026C91.7073 27.7661 89.8546 27.569 88.9085 27.2536C87.7653 26.8594 87.5682 26.071 87.5682 25.2432C87.5682 23.5875 89.3027 22.4837 92.3775 22.4837C95.6099 22.4837 96.9897 23.7058 97.0291 26.2287H101.011C101.011 21.8136 98.33 19.2907 92.2592 19.2907C86.9769 19.2907 83.1925 21.6559 83.1925 25.5585C83.1925 27.0565 83.8232 28.4756 84.8876 29.2641C86.0702 30.1313 88.1201 30.5255 91.1554 30.8014C93.3236 30.9985 95.1763 31.1957 96.1224 31.5504C97.1473 31.9052 97.4233 32.5754 97.4233 33.3244C97.4233 35.0983 95.8465 36.202 92.2592 36.202C88.4749 36.202 87.174 34.8223 87.174 32.5754H83.1925C83.1925 36.3991 85.5972 39.3951 92.2986 39.3951Z" fill="black"/>
<path d="M112.943 39.3163C114.559 39.3163 115.899 39.0403 116.49 38.8432V35.3348C115.939 35.4925 114.677 35.6896 113.573 35.6896C110.893 35.6896 109.947 34.4281 109.947 31.9052V23.1933H116.648V19.6061H109.947V15.191H106.281L106.083 18.1081C105.965 19.2119 105.689 19.6061 104.94 19.6061H102.457V23.1933H105.532V32.1417C105.532 36.4386 107.621 39.3163 112.943 39.3163Z" fill="black"/>
<path d="M125.11 39.3951C129.406 39.3951 131.732 37.6606 132.363 34.7829H132.402C132.402 36.3597 132.284 38.1336 132.205 39.0797H136.62V27.2142C136.62 22.0895 133.151 19.2907 127.238 19.2907C121.68 19.2907 118.29 21.6165 118.29 25.5191C118.29 25.8739 118.329 26.3864 118.369 26.6623H122.429C122.39 26.3469 122.39 26.0316 122.39 25.9133C122.39 23.7452 124.085 22.602 127.081 22.602C130.51 22.602 132.205 23.9029 132.205 26.82V28.1997H124.991C119.788 28.1997 117.699 30.5255 117.699 33.482C117.699 37.2664 120.655 39.3951 125.11 39.3951ZM126.016 36.0838C123.336 36.0838 121.759 35.0588 121.759 33.2849C121.759 31.7475 122.863 30.8803 125.386 30.8803H132.205V31.2351C132.205 34.231 129.84 36.0838 126.016 36.0838Z" fill="black"/>
<path d="M139.784 39.0797H144.514V31.038H151.097C157.326 31.038 160.716 27.8055 160.716 22.1684C160.716 16.3736 156.931 13.1411 150.506 13.1411H139.784V39.0797ZM144.514 27.6872V17.0832H150.348C154.133 17.0832 156.222 18.9753 156.222 22.4049C156.222 25.9527 154.251 27.6872 150.821 27.6872H144.514Z" fill="black"/>
<path d="M169.893 39.3951C174.19 39.3951 176.516 37.6606 177.147 34.7829H177.186C177.186 36.3597 177.068 38.1336 176.989 39.0797H181.404V27.2142C181.404 22.0895 177.935 19.2907 172.022 19.2907C166.464 19.2907 163.074 21.6165 163.074 25.5191C163.074 25.8739 163.113 26.3864 163.152 26.6623H167.213C167.173 26.3469 167.173 26.0316 167.173 25.9133C167.173 23.7452 168.868 22.602 171.864 22.602C175.294 22.602 176.989 23.9029 176.989 26.82V28.1997H169.775C164.572 28.1997 162.482 30.5255 162.482 33.482C162.482 37.2664 165.439 39.3951 169.893 39.3951ZM170.8 36.0838C168.119 36.0838 166.543 35.0588 166.543 33.2849C166.543 31.7475 167.646 30.8803 170.169 30.8803H176.989V31.2351C176.989 34.231 174.624 36.0838 170.8 36.0838Z" fill="black"/>
<path d="M187.629 47.3186C191.492 47.3186 193.384 45.3082 195.552 39.4739L202.963 19.6061H198.627L193.147 34.6252H193.069L186.88 19.6061H181.794L190.23 39.0797H191.295C189.836 42.7064 188.89 43.7313 186.84 43.7313C185.855 43.7313 184.948 43.4948 184.396 43.3371V46.8061C184.948 47.0032 186.131 47.3186 187.629 47.3186Z" fill="black"/>
</g>
</g>
<defs>
<radialGradient id="paint0_radial_203_1273" cx="0" cy="0" r="1" gradientUnits="userSpaceOnUse" gradientTransform="translate(9.78008 0.533693) rotate(80.6157) scale(57.7129 346.277)">
<stop stop-color="#E64067"/>
<stop offset="0.55653" stop-color="#5926F0"/>
<stop offset="1" stop-color="#4828A0"/>
</radialGradient>
</defs>
</svg>
