<svg xmlns="http://www.w3.org/2000/svg" width="154" height="38" viewBox="0 0 154 38" fill="none">
  <path d="M39.3662 25.1529H42.9322V5.43481H39.3662V25.1529Z" fill="black"/>
  <path d="M45.6243 25.1529H48.9806V17.9909C48.9806 14.7545 50.8385 12.9864 53.7752 12.9864C56.4423 12.9864 57.7608 14.305 57.7608 16.6424V25.1529H61.1171V15.8932C61.1171 12.2373 58.8096 10.1096 55.0638 10.1096C51.6176 10.1096 49.6998 11.6379 48.8907 14.305H48.8607L48.9806 10.3494H45.6243V25.1529Z" fill="black"/>
  <path d="M69.7482 25.3926C74.4829 25.3926 77.0001 23.6246 77.0001 20.6279C77.0001 19.4293 76.4308 18.2905 75.4419 17.7511C74.393 17.1518 73.1944 16.942 71.0967 16.7323C69.2987 16.5525 67.8902 16.4026 67.171 16.1629C66.302 15.8632 66.1522 15.2639 66.1522 14.6346C66.1522 13.376 67.4707 12.5369 69.8081 12.5369C72.2654 12.5369 73.3142 13.4659 73.3442 15.3838H76.3708C76.3708 12.0275 74.3331 10.1096 69.7182 10.1096C65.7027 10.1096 62.8259 11.9076 62.8259 14.8743C62.8259 16.0131 63.3053 17.0919 64.1144 17.6912C65.0134 18.3505 66.5717 18.6501 68.8792 18.8599C70.5273 19.0097 71.9358 19.1596 72.655 19.4293C73.4341 19.699 73.6439 20.2084 73.6439 20.7778C73.6439 22.1263 72.4452 22.9653 69.7182 22.9653C66.8414 22.9653 65.8525 21.9165 65.8525 20.2084H62.8259C62.8259 23.1152 64.6538 25.3926 69.7482 25.3926Z" fill="black"/>
  <path d="M85.4414 25.3327C86.67 25.3327 87.6889 25.1229 88.1384 24.9731V22.3061C87.7188 22.4259 86.7599 22.5758 85.9208 22.5758C83.8831 22.5758 83.1639 21.6168 83.1639 19.699V13.0763H88.2582V10.3494H83.1639V6.99308H80.377L80.2272 9.21062C80.1373 10.0497 79.9275 10.3494 79.3581 10.3494H77.4702V13.0763H79.8076V19.8788C79.8076 23.1451 81.3959 25.3327 85.4414 25.3327Z" fill="black"/>
  <path d="M94.6905 25.3926C97.9569 25.3926 99.7249 24.0741 100.204 21.8865H100.234C100.234 23.0852 100.144 24.4337 100.085 25.1529H103.441V16.1329C103.441 12.2373 100.804 10.1096 96.3087 10.1096C92.0834 10.1096 89.5063 11.8777 89.5063 14.8444C89.5063 15.1141 89.5363 15.5036 89.5662 15.7134H92.6528C92.6228 15.4737 92.6228 15.2339 92.6228 15.144C92.6228 13.4959 93.9114 12.6268 96.1889 12.6268C98.796 12.6268 100.085 13.6157 100.085 15.8333V16.8821H94.6006C90.645 16.8821 89.0568 18.6501 89.0568 20.8976C89.0568 23.7744 91.3043 25.3926 94.6905 25.3926ZM95.3798 22.8754C93.342 22.8754 92.1434 22.0963 92.1434 20.7478C92.1434 19.5791 92.9824 18.9198 94.9003 18.9198H100.085V19.1895C100.085 21.467 98.2865 22.8754 95.3798 22.8754Z" fill="black"/>
  <path d="M105.845 25.1529H109.441V19.0397H114.446C119.181 19.0397 121.758 16.5824 121.758 12.2972C121.758 7.89208 118.881 5.43481 113.996 5.43481H105.845V25.1529ZM109.441 16.4925V8.43148H113.876C116.753 8.43148 118.342 9.86988 118.342 12.477C118.342 15.174 116.843 16.4925 114.236 16.4925H109.441Z" fill="black"/>
  <path d="M128.734 25.3926C132.001 25.3926 133.769 24.0741 134.248 21.8865H134.278C134.278 23.0852 134.188 24.4337 134.128 25.1529H137.485V16.1329C137.485 12.2373 134.848 10.1096 130.353 10.1096C126.127 10.1096 123.55 11.8777 123.55 14.8444C123.55 15.1141 123.58 15.5036 123.61 15.7134H126.697C126.667 15.4737 126.667 15.2339 126.667 15.144C126.667 13.4959 127.955 12.6268 130.233 12.6268C132.84 12.6268 134.128 13.6157 134.128 15.8333V16.8821H128.644C124.689 16.8821 123.101 18.6501 123.101 20.8976C123.101 23.7744 125.348 25.3926 128.734 25.3926ZM129.424 22.8754C127.386 22.8754 126.187 22.0963 126.187 20.7478C126.187 19.5791 127.026 18.9198 128.944 18.9198H134.128V19.1895C134.128 21.467 132.33 22.8754 129.424 22.8754Z" fill="black"/>
  <path d="M142.216 31.4159C145.153 31.4159 146.591 29.8876 148.24 25.4526L153.873 10.3494H150.577L146.412 21.7667H146.352L141.647 10.3494H137.781L144.194 25.1529H145.003C143.894 27.9098 143.175 28.689 141.617 28.689C140.868 28.689 140.179 28.5092 139.759 28.3893V31.0264C140.179 31.1762 141.078 31.4159 142.216 31.4159Z" fill="black"/>
  <path fill-rule="evenodd" clip-rule="evenodd" d="M24.8732 12.4366C24.8732 12.8501 24.8528 13.2595 24.8133 13.6635C24.8133 13.6662 24.8133 13.669 24.812 13.6717C24.8024 13.771 24.7916 13.8689 24.7793 13.9668C24.7671 14.0689 24.7535 14.1695 24.7385 14.2702C24.7235 14.3708 24.7072 14.4701 24.6895 14.5708C24.6719 14.6701 24.6528 14.7707 24.6338 14.87C24.6025 15.0251 24.5685 15.1802 24.5317 15.3339C24.5045 15.4481 24.4733 15.561 24.4433 15.6739C24.4338 15.7093 24.4243 15.7447 24.4148 15.7814C24.378 15.9133 24.3386 16.0453 24.2964 16.1772C24.2937 16.1854 24.291 16.1935 24.2883 16.2031C22.6941 21.2291 17.9931 24.8732 12.4366 24.8732V37.1847L6.21897 31.1465L0 24.8528V12.2611H12.4366L0.0217637 0.0204035H11.732C11.9659 0.00680115 12.1999 0 12.4366 0C17.989 0 22.6886 3.63862 24.2855 8.66194C24.291 8.67691 24.2951 8.69187 24.3005 8.70683C24.34 8.83333 24.378 8.95984 24.4134 9.0877C24.4256 9.1285 24.4352 9.16931 24.4461 9.21148C24.476 9.31894 24.5045 9.42775 24.5304 9.53793C24.5685 9.69164 24.6025 9.84671 24.6338 10.0031C24.6528 10.1024 24.6719 10.2031 24.6895 10.3024C24.7072 10.403 24.7235 10.5023 24.7385 10.603C24.7535 10.7036 24.7671 10.8043 24.7793 10.9063C24.7916 11.0043 24.8024 11.1022 24.812 11.2015C24.8133 11.2042 24.8133 11.2069 24.8133 11.2097C24.8528 11.6136 24.8732 12.0231 24.8732 12.4366Z" fill="url(#paint0_radial_1001_105)"/>
  <defs>
    <radialGradient id="paint0_radial_1001_105" cx="0" cy="0" r="1" gradientUnits="userSpaceOnUse" gradientTransform="translate(6.2912) rotate(80.6157) scale(37.6891 226.134)">
      <stop stop-color="#E64067"/>
      <stop offset="0.55653" stop-color="#5926F0"/>
      <stop offset="1" stop-color="#4828A0"/>
    </radialGradient>
  </defs>
</svg>